<?xml version="1.0" standalone="no"?><!DOCTYPE svg PUBLIC "-//W3C//DTD SVG 1.1//EN" "http://www.w3.org/Graphics/SVG/1.1/DTD/svg11.dtd"><svg t="1720408424589" class="icon" viewBox="0 0 1024 1024" version="1.1" xmlns="http://www.w3.org/2000/svg" p-id="4871" xmlns:xlink="http://www.w3.org/1999/xlink" width="20" height="20"><path d="M512 0C229.216 0 0 229.216 0 512c0 282.768 229.216 512 512 512 282.752 0 512-229.232 512-512C1024 229.216 794.752 0 512 0zM512 992C246.896 992 32 777.088 32 512 32 246.896 246.896 32 512 32c265.056 0 480 214.896 480 480C992 777.088 777.056 992 512 992z" p-id="4872" fill="#87878A"></path><path d="M710.672 281.44c0-0.496-0.24-0.928-0.288-1.408-0.048-0.464 0.112-0.896 0.032-1.36-0.112-0.608-0.464-1.056-0.64-1.632-0.32-1.072-0.672-2.08-1.184-3.04-0.48-0.88-1.024-1.664-1.664-2.432-0.656-0.816-1.328-1.552-2.144-2.224-0.784-0.64-1.584-1.168-2.464-1.664-0.896-0.496-1.792-0.928-2.8-1.248-0.992-0.336-2-0.496-3.072-0.624-0.608-0.064-1.136-0.352-1.776-0.352-0.496 0-0.928 0.24-1.408 0.288-0.464 0.032-0.912-0.112-1.376-0.032l-360.112 63.808c-0.752 0.128-1.328 0.576-2.032 0.8-0.832 0.272-1.616 0.544-2.368 0.944-1.088 0.56-2.032 1.216-2.96 2-0.672 0.56-1.264 1.104-1.824 1.76-0.752 0.88-1.36 1.792-1.904 2.816-0.432 0.816-0.816 1.616-1.104 2.496-0.352 1.056-0.544 2.128-0.672 3.264-0.064 0.608-0.352 1.12-0.352 1.744l0 310.704c-11.44-5.968-25.2-9.472-40-9.472-39.76 0-72 25.088-72 56 0 30.944 32.24 56 72 56s72-25.056 72-56c0-0.16-0.064-0.32-0.064-0.496 0-0.128 0.064-0.224 0.064-0.32L350.56 460.208l328.128-57.856L678.688 592.16c-11.44-5.968-25.184-9.472-40-9.472-39.776 0-72 25.088-72 56s32.224 56 72 56c39.744 0 72-25.088 72-56 0-0.192-0.064-0.336-0.064-0.496 0-0.128 0.064-0.224 0.064-0.336L710.688 281.44zM278.544 726.56c-22.096 0-40-10.752-40-24s17.904-24 40-24 40 10.752 40 24S300.64 726.56 278.544 726.56zM638.672 662.688c-22.096 0-40-10.752-40-24s17.904-24 40-24 40 10.752 40 24S660.768 662.688 638.672 662.688zM350.544 427.712l0-69.04 328.128-58.144 0 69.328L350.544 427.712z" p-id="4873" fill="#87878A"></path></svg>