<?xml version="1.0" standalone="no"?><!DOCTYPE svg PUBLIC "-//W3C//DTD SVG 1.1//EN" "http://www.w3.org/Graphics/SVG/1.1/DTD/svg11.dtd"><svg t="1720407941094" class="icon" viewBox="0 0 1024 1024" version="1.1" xmlns="http://www.w3.org/2000/svg" p-id="3619" xmlns:xlink="http://www.w3.org/1999/xlink" width="20" height="20"><path d="M508.805 320.819h450.168c30.037 0 54.322 24.285 54.322 54.322-0.191 4.92-0.191 4.92-0.894 9.842L902.607 979.52a54.322 54.322 0 0 1-53.428 44.48H214.827a54.322 54.322 0 0 1-54.322-54.322v-634.16a54.322 54.322 0 0 1 8.308-28.759l134.08-214.54a54.322 54.322 0 0 1 46.013-25.499h196.646a54.322 54.322 0 0 1 48.826 78.096L508.74 320.69zM0.735 367.599a47.931 47.931 0 0 1 95.862 0v606.872a47.931 47.931 0 0 1-95.862 0V367.6z" fill="#87878A" p-id="3620"></path></svg>