<?xml version="1.0" standalone="no"?><!DOCTYPE svg PUBLIC "-//W3C//DTD SVG 1.1//EN" "http://www.w3.org/Graphics/SVG/1.1/DTD/svg11.dtd"><svg t="1720403220385" class="icon" viewBox="0 0 1024 1024" version="1.1" xmlns="http://www.w3.org/2000/svg" p-id="17170" width="48" height="48" xmlns:xlink="http://www.w3.org/1999/xlink"><path d="M891.374912 299.092959c0-8.898671 0-42.283012-36.34579-42.562375-4.915963 0-20.106943 0-42.970674 0-62.262042 0-181.273577 0.075725-300.43349 0.149403-162.577772 0.073678-325.530075 0.204661-344.707856 0.073678-39.696094-0.223081-39.696094 34.166147-39.696094 41.949414 0.112564 162.578796-0.25992 444.672592-0.110517 487.905232 0.110517 43.195801 41.929971 42.97272 39.806611 43.195801 237.762125-0.074701 649.013537 0 686.810375 0 37.647435 0 37.647435-33.402761 37.647435-42.823318C891.149784 624.328321 891.149784 461.785342 891.374912 299.092959zM829.856813 293.955962c-4.581342 5.715165-7.260357 9.812483-10.538007 13.144368-78.161151 79.912028-156.286486 159.582555-234.632855 239.047398-15.937994 16.292058-31.951713 32.248472-49.15349 46.993291-8.193613 7.132444-17.056468 10.595312-25.843598 10.595312-8.639774 0-17.313318-3.332908-25.50693-9.699919-14.559601-11.506055-27.928073-24.89397-41.258683-38.315654-82.035388-83.693144-164.18027-167.477362-246.177795-251.373121-2.308579-2.291183-4.618181-4.952802-9.123798-10.31595C402.967236 294.02964 614.847901 294.02964 829.856813 293.955962zM163.863557 768.95935 163.863557 317.76932c74.810846 75.964112 147.461493 150.104693 221.675752 225.417983C311.621808 618.498546 238.934323 692.64015 163.863557 768.95935zM828.666708 792.678564 190.339558 792.678564c-1.340531-1.563612-2.53166-3.313465-3.648087-4.879124 4.318352-3.201925 9.457396-5.548366 13.255908-9.420557 66.283636-67.13912 132.640949-134.61286 198.588941-202.442712 7.410783-7.40976 11.878538-7.484462 19.176758-0.147356 17.390066 17.277502 35.004235 34.313503 53.473889 49.877991 25.39539 21.205974 51.870368 20.387329 76.93216-0.502443 17.873066-15.193027 35.002189-31.40936 51.685149-48.165999 7.744381-7.858992 12.511965-9.123798 20.927635-0.540306 65.277726 67.232241 131.151016 133.88836 196.874903 200.653973 4.170996 4.207835 9.049097 7.634888 13.443174 11.4334C830.268182 790.035364 829.48433 791.263331 828.666708 792.678564zM855.25425 769.256108c-75.071789-76.336596-147.610896-150.384056-221.788316-225.994104 73.507154-74.885548 145.749502-148.858306 218.436988-222.663242 1.004887 0.578168 2.159176 1.341554 3.351328 2.12336C855.25425 469.921649 855.25425 617.457844 855.25425 769.256108z" fill="#87878A" p-id="17171"></path></svg>