<?xml version="1.0" standalone="no"?><!DOCTYPE svg PUBLIC "-//W3C//DTD SVG 1.1//EN" "http://www.w3.org/Graphics/SVG/1.1/DTD/svg11.dtd"><svg t="1720404398963" class="icon" viewBox="0 0 1024 1024" version="1.1" xmlns="http://www.w3.org/2000/svg" p-id="9037" xmlns:xlink="http://www.w3.org/1999/xlink" width="20" height="20"><path d="M512 240a160 160 0 1 1-160 160 160 160 0 0 1 160-160m0-64a224 224 0 1 0 224 224 224 224 0 0 0-224-224z" fill="#87878A" p-id="9038"></path><path d="M656 620.96a32 31.84 0 1 0 64 0 32 31.84 0 1 0-64 0Z" fill="#87878A" p-id="9039"></path><path d="M192 807.52a32 32 0 0 1-27.6-48A403.6 403.6 0 0 1 512 560a32 32 0 0 1 0 64 339.36 339.36 0 0 0-292.32 168 32 32 0 0 1-27.68 15.52zM835.12 812.96a32 32 0 0 1-27.92-16 336.56 336.56 0 0 0-75.92-92.16 32 32 0 1 1 41.44-48.8 400 400 0 0 1 90.32 109.68 32 32 0 0 1-27.92 47.28z" fill="#87878A" p-id="9040"></path><path d="M512 120a392 392 0 1 1-392 392 392.48 392.48 0 0 1 392-392m0-64a456 456 0 1 0 456 456A456 456 0 0 0 512 56z" fill="#87878A" p-id="9041"></path></svg>