<?xml version="1.0" standalone="no"?><!DOCTYPE svg PUBLIC "-//W3C//DTD SVG 1.1//EN" "http://www.w3.org/Graphics/SVG/1.1/DTD/svg11.dtd"><svg t="1724562490967" class="icon" viewBox="0 0 1024 1024" version="1.1" xmlns="http://www.w3.org/2000/svg" p-id="5396" xmlns:xlink="http://www.w3.org/1999/xlink" width="20" height="20"><path d="M539.591111 269.937778m-25.031111 0l-0.568889 0q-25.031111 0-25.031111-25.031111l0-76.8q0-25.031111 25.031111-25.031111l0.568889 0q25.031111 0 25.031111 25.031111l0 76.8q0 25.031111-25.031111 25.031111Z" fill="#87878A" p-id="5397"></path><path d="M803.959385 404.970585m-17.058392-18.318509l-0.387691-0.41633q-17.058392-18.318509 1.260117-35.376901l56.204517-52.338249q18.318509-17.058392 35.376902 1.260117l0.38769 0.41633q17.058392 18.318509-1.260117 35.376901l-56.204517 52.338249q-18.318509 17.058392-35.376901-1.260117Z" fill="#87878A" p-id="5398"></path><path d="M111.341867 322.224284m17.058392-18.318509l0.387691-0.41633q17.058392-18.318509 35.376902-1.260117l56.204517 52.338248q18.318509 17.058392 1.260117 35.376902l-0.387691 0.41633q-17.058392 18.318509-35.376902 1.260117l-56.204516-52.338249q-18.318509-17.058392-1.260118-35.376901Z" fill="#87878A" p-id="5399"></path><path d="M880.64 634.311111m0-25.031111l0-0.568889q0-25.031111 25.031111-25.031111l76.8 0q25.031111 0 25.031111 25.031111l0 0.568889q0 25.031111-25.031111 25.031111l-76.8 0q-25.031111 0-25.031111-25.031111Z" fill="#87878A" p-id="5400"></path><path d="M20.48 634.595556m0-25.031112l0-0.568888q0-25.031111 25.031111-25.031112l76.8 0q25.031111 0 25.031111 25.031112l0 0.568888q0 25.031111-25.031111 25.031112l-76.8 0q-25.031111 0-25.031111-25.031112Z" fill="#87878A" p-id="5401"></path><path d="M850.488889 649.955556h-56.888889a279.324444 279.324444 0 1 0-558.364444 0h-56.888889a336.213333 336.213333 0 1 1 672.142222 0z" fill="#87878A" p-id="5402"></path><path d="M64.568889 727.324444m20.764444 0l845.937778 0q20.764444 0 20.764445 20.764445l0 0.284444q0 20.764444-20.764445 20.764445l-845.937778 0q-20.764444 0-20.764444-20.764445l0-0.284444q0-20.764444 20.764444-20.764445Z" fill="#87878A" p-id="5403"></path><path d="M178.346667 833.137778m20.764444 0l304.924445 0q20.764444 0 20.764444 20.764444l0 0.284445q0 20.764444-20.764444 20.764444l-304.924445 0q-20.764444 0-20.764444-20.764444l0-0.284445q0-20.764444 20.764444-20.764444Z" fill="#87878A" p-id="5404"></path><path d="M557.795556 833.137778m20.764444 0l215.608889 0q20.764444 0 20.764444 20.764444l0 0.284445q0 20.764444-20.764444 20.764444l-215.608889 0q-20.764444 0-20.764444-20.764444l0-0.284445q0-20.764444 20.764444-20.764444Z" fill="#87878A" p-id="5405"></path></svg>