<?xml version="1.0" standalone="no"?><!DOCTYPE svg PUBLIC "-//W3C//DTD SVG 1.1//EN" "http://www.w3.org/Graphics/SVG/1.1/DTD/svg11.dtd"><svg t="1723881425184" class="icon" viewBox="0 0 1024 1024" version="1.1" xmlns="http://www.w3.org/2000/svg" p-id="7937" xmlns:xlink="http://www.w3.org/1999/xlink" width="25" height="25"><path d="M945.472 625.216h-57.92a391.936 391.936 0 0 0 16.576-112.192 392.768 392.768 0 0 0-785.536 0c0 39.04 5.888 76.736 16.448 112.192h-57.856a447.808 447.808 0 0 1-14.72-112.192 448.832 448.832 0 0 1 897.664 0c0 38.912-5.44 76.352-14.72 112.192z m-854.976 56.128h841.6a28.032 28.032 0 1 1 0 56.128H90.496a28.096 28.096 0 1 1 0-56.128zM174.72 793.6h673.28a28.16 28.16 0 0 1 0 56.128H174.72a28.096 28.096 0 1 1 0-56.128z m196.288 112.256h280.64a28.032 28.032 0 1 1 0 56.064H511.36l-0.128 0.128v-0.128H370.944a28.032 28.032 0 1 1 0-56.064z" p-id="7938" fill="#87878A"></path></svg>