<?xml version="1.0" standalone="no"?><!DOCTYPE svg PUBLIC "-//W3C//DTD SVG 1.1//EN" "http://www.w3.org/Graphics/SVG/1.1/DTD/svg11.dtd"><svg t="1720406370894" class="icon" viewBox="0 0 1024 1024" version="1.1" xmlns="http://www.w3.org/2000/svg" p-id="1460" xmlns:xlink="http://www.w3.org/1999/xlink" width="20" height="20"><path d="M980.8 913.6L780.8 713.6C832 646.4 864 563.2 864 472 864 251.2 684.8 73.6 464 73.6S65.6 251.2 65.6 472c0 220.8 179.2 398.4 398.4 398.4 94.4 0 180.8-33.6 249.6-88L912 980.8c6.4 6.4 20.8 14.4 32 14.4 16 0 25.6-8 32-14.4 11.2-11.2 17.6-25.6 17.6-38.4-1.6-11.2-4.8-22.4-12.8-28.8zM761.6 472c0 163.2-134.4 297.6-297.6 297.6-163.2 0-297.6-134.4-297.6-297.6 0-163.2 134.4-297.6 297.6-297.6 163.2 0 297.6 134.4 297.6 297.6z" p-id="1461" fill="#87878A"></path></svg>