<?xml version="1.0" standalone="no"?><!DOCTYPE svg PUBLIC "-//W3C//DTD SVG 1.1//EN" "http://www.w3.org/Graphics/SVG/1.1/DTD/svg11.dtd"><svg t="1720516255463" class="icon" viewBox="0 0 1024 1024" version="1.1" xmlns="http://www.w3.org/2000/svg" p-id="9438" xmlns:xlink="http://www.w3.org/1999/xlink" width="20" height="20"><path d="M924 616a36 36 0 0 0-36 36v236H136V136h128a36 36 0 0 0 0-72H100a36 36 0 0 0-36 36v824a36 36 0 0 0 36 36h824a36 36 0 0 0 36-36V652a36 36 0 0 0-36-36z" p-id="9439" fill="#87878A"></path><path d="M444 616h272a36 36 0 0 0 0-72H530.91l418.55-418.54a36 36 0 1 0-50.92-50.91L480 493.09V308a36 36 0 0 0-72 0v272a36 36 0 0 0 36 36z" p-id="9440" fill="#87878A"></path></svg>