<?xml version="1.0" standalone="no"?><!DOCTYPE svg PUBLIC "-//W3C//DTD SVG 1.1//EN" "http://www.w3.org/Graphics/SVG/1.1/DTD/svg11.dtd"><svg t="1723883541205" class="icon" viewBox="0 0 1087 1024" version="1.1" xmlns="http://www.w3.org/2000/svg" p-id="14204" xmlns:xlink="http://www.w3.org/1999/xlink" width="21.23046875" height="20"><path d="M608.226729 1024a512.743324 512.743324 0 0 0 420.843747-220.46939 34.174355 34.174355 0 0 0 1.919908-35.838275 32.766423 32.766423 0 0 0-31.166501-17.855141l-8.255602 0.447979c-2.559877 0.191991-5.119754 0.319985-7.679631 0.319984A444.45861 444.45861 0 0 1 539.942015 306.594525c0-90.747633 27.454679-178.231423 79.356181-252.787834a34.174355 34.174355 0 0 0 1.919908-35.902273A33.278398 33.278398 0 0 0 589.92361 0.049278 510.375438 510.375438 0 0 0 95.99538 511.768651C95.99538 794.251057 325.744324 1024 608.226729 1024z m322.608475-207.542012a443.946635 443.946635 0 0 1-322.544478 139.321295 444.45861 444.45861 0 0 1-444.010632-443.946635 441.578749 441.578749 0 0 1 362.542553-436.011017 508.775515 508.775515 0 0 0-55.165346 231.156876c0 264.435274 201.590298 482.792766 459.177903 509.415484z" p-id="14205" fill="#87878A"></path></svg>