<?xml version="1.0" standalone="no"?><!DOCTYPE svg PUBLIC "-//W3C//DTD SVG 1.1//EN" "http://www.w3.org/Graphics/SVG/1.1/DTD/svg11.dtd"><svg t="1723955831948" class="icon" viewBox="0 0 1024 1024" version="1.1" xmlns="http://www.w3.org/2000/svg" p-id="3621" xmlns:xlink="http://www.w3.org/1999/xlink" width="20" height="20"><path d="M945.656 549.709H832.528c-10.415 0-18.854-8.447-18.854-18.859v-37.709c0-10.41 8.439-18.85 18.854-18.85h113.128c10.415 0 18.854 8.438 18.854 18.85v37.71c0.001 10.411-8.44 18.858-18.854 18.858zM765.31 312.012c-7.36 7.369-19.3 7.369-26.664 0l-26.664-26.66c-7.365-7.36-7.365-19.304 0-26.668l79.993-79.993c7.364-7.37 19.303-7.37 26.664 0l26.664 26.66c7.365 7.372 7.365 19.307 0 26.668l-79.993 79.993zM512 775.961c-145.784 0-263.965-118.177-263.965-263.961 0-145.78 118.18-263.965 263.965-263.965S775.965 366.22 775.965 512c0 145.783-118.182 263.96-263.965 263.96z m0-452.507c-104.13 0-188.546 84.415-188.546 188.546 0 104.134 84.415 188.55 188.546 188.55S700.546 616.135 700.546 512c0-104.13-84.416-188.546-188.546-188.546z m18.854-113.128h-37.708c-10.412 0-18.855-8.443-18.855-18.854V78.336c0-10.411 8.443-18.851 18.855-18.851h37.708c10.412 0 18.855 8.439 18.855 18.851v113.136c0 10.411-8.443 18.854-18.855 18.854zM285.352 312.012c-7.365 7.369-19.304 7.369-26.664 0l-79.993-79.993c-7.365-7.36-7.365-19.295 0-26.668l26.664-26.66c7.36-7.37 19.3-7.37 26.664 0l79.993 79.993c7.365 7.364 7.365 19.306 0 26.668l-26.664 26.66z m-75.026 181.13v37.708c0 10.411-8.439 18.859-18.854 18.859H78.343c-10.415 0-18.854-8.447-18.854-18.859v-37.709c0-10.41 8.44-18.85 18.854-18.85h113.128c10.416 0 18.855 8.44 18.855 18.85z m48.362 218.838c7.36-7.358 19.3-7.358 26.664 0l26.664 26.668c7.365 7.358 7.365 19.3 0 26.66l-79.993 79.993c-7.364 7.369-19.303 7.369-26.664 0l-26.664-26.668c-7.365-7.354-7.365-19.296 0-26.657l79.993-79.996z m234.458 101.698h37.708c10.412 0 18.855 8.439 18.855 18.851v113.128c0 10.41-8.443 18.858-18.855 18.858h-37.708c-10.412 0-18.855-8.446-18.855-18.858V832.528c0-10.411 8.442-18.85 18.855-18.85zM738.647 711.98c7.365-7.358 19.304-7.358 26.664 0l79.993 79.996c7.365 7.36 7.365 19.303 0 26.657L818.64 845.3c-7.36 7.369-19.3 7.369-26.664 0l-79.993-79.993c-7.365-7.36-7.365-19.303 0-26.66l26.664-26.668z" fill="#87878A" p-id="3622"></path></svg>