<?xml version="1.0" standalone="no"?><!DOCTYPE svg PUBLIC "-//W3C//DTD SVG 1.1//EN" "http://www.w3.org/Graphics/SVG/1.1/DTD/svg11.dtd"><svg t="1723916187137" class="icon" viewBox="0 0 1024 1024" version="1.1" xmlns="http://www.w3.org/2000/svg" p-id="2760" xmlns:xlink="http://www.w3.org/1999/xlink" width="20" height="20"><path d="M240.384 162.304a384 384 0 0 1 566.528 517.248l-10.88 12.48-12.608 13.312-271.552 271.488-271.488-271.488a384 384 0 0 1 0-543.04z m497.792 45.248a320 320 0 0 0-463.552 440.96l11.008 11.52 226.24 226.304 225.728-225.728 11.584-12.16a320 320 0 0 0-11.008-440.96zM512 273.92a160 160 0 1 1 0 320 160 160 0 0 1 0-320z m0 64a96 96 0 1 0 0 192 96 96 0 0 0 0-192z" fill="#87878A" p-id="2761"></path></svg>