<?xml version="1.0" standalone="no"?><!DOCTYPE svg PUBLIC "-//W3C//DTD SVG 1.1//EN" "http://www.w3.org/Graphics/SVG/1.1/DTD/svg11.dtd"><svg t="1724566480244" class="icon" viewBox="0 0 1024 1024" version="1.1" xmlns="http://www.w3.org/2000/svg" p-id="13589" xmlns:xlink="http://www.w3.org/1999/xlink" width="20" height="20"><path d="M512.63382 0.000626a511.992489 511.992489 0 1 0 511.366581 511.992489A511.992489 511.992489 0 0 0 512.63382 0.000626z m0 908.192056a397.451382 397.451382 0 1 1 397.451382-397.451382 397.451382 397.451382 0 0 1-396.199567 397.451382z" fill="#797df8" p-id="13590"></path><path d="M313.595175 312.95447c-34.424923 0-62.590769 37.554461-62.590769 83.87163V625.908314c0 45.691261 27.539938 83.87163 62.590769 83.871631s62.590769-40.684 62.590769-83.871631V394.948377C376.185944 348.631208 346.768283 312.95447 313.595175 312.95447zM493.856589 317.961732a47.568984 47.568984 0 0 0-71.979384 41.309907v299.809783a48.194892 48.194892 0 0 0 71.979384 41.309907L751.730557 550.799392a48.194892 48.194892 0 0 0 0-83.245723z" fill="#797df8" p-id="13591"></path></svg>